<svg xmlns="http://www.w3.org/2000/svg"  viewBox="0 0 48 48" width="48px" height="48px"><path d="M 24 3 C 12.413858 3 3 12.413866 3 24 C 3 35.586134 12.413858 45 24 45 C 35.586142 45 45 35.586134 45 24 C 45 12.413866 35.586142 3 24 3 z M 24 5 C 34.505263 5 43 13.494744 43 24 C 43 34.505256 34.505263 43 24 43 C 13.494737 43 5 34.505256 5 24 C 5 13.494744 13.494737 5 24 5 z M 30.990234 15.986328 A 1.0001 1.0001 0 0 0 30.292969 16.292969 L 24 22.585938 L 17.707031 16.292969 A 1.0001 1.0001 0 0 0 16.990234 15.990234 A 1.0001 1.0001 0 0 0 16.292969 17.707031 L 22.585938 24 L 16.292969 30.292969 A 1.0001 1.0001 0 1 0 17.707031 31.707031 L 24 25.414062 L 30.292969 31.707031 A 1.0001 1.0001 0 1 0 31.707031 30.292969 L 25.414062 24 L 31.707031 17.707031 A 1.0001 1.0001 0 0 0 30.990234 15.986328 z"/></svg>